<?xml version="1.0" encoding="UTF-8"?>
<svg width="735px" height="162px" viewBox="0 0 735 162" version="1.1" xmlns="http://www.w3.org/2000/svg" xmlns:xlink="http://www.w3.org/1999/xlink">
    <!-- Generator: Sketch 53.1 (72631) - https://sketchapp.com -->
    <title>logo5</title>
    <desc>Created with Sketch.</desc>
    <g id="Page-1" stroke="none" stroke-width="1" fill="none" fill-rule="evenodd">
        <g id="logo5" transform="translate(3.000000, 0.000000)">
            <polygon id="Rectangle" stroke="#0E0F0F" stroke-width="3" points="107.919217 1.5 0 160.5 298.784674 160.5 402.378885 1.5"></polygon>
            <polygon id="Rectangle-Copy-4" fill="#131415" fill-rule="nonzero" points="405.146474 2.15827356e-12 731.258283 0 618.597656 162 296.960938 162"></polygon>
            <polygon id="Combined-Shape-Copy-20" fill="#131415" fill-rule="nonzero" points="337.807617 104.007078 337.807617 82.8300781 301.039062 82.8300781 301.039062 131.461919 284.487305 131.461919 284.487305 103.773438 284.487305 73.9648438 284.487305 46.2617188 284.487305 25 301.039062 25 301.039062 69.6044922 337.807617 69.6044922 337.807617 25 354.946289 25 354.946289 78.5979525"></polygon>
            <polygon id="Path-Copy-17" fill="#131415" fill-rule="nonzero" transform="translate(238.821289, 78.230959) scale(-1, 1) translate(-238.821289, -78.230959) " points="238.821289 75.9765625 262.482422 25 280.642578 25 247.390625 93.3349609 247.390625 131.461919 230.032227 131.461919 230.032227 92.8955078 197 25 218.818359 25"></polygon>
            <polygon id="Combined-Shape-Copy-19" fill="#131415" fill-rule="nonzero" points="67.365736 72.8271484 96.830078 72.8271484 96.830078 39.3554688 89.942669 39.3554688 99.625555 25 114.481445 25 118.487305 131.640625 98.412431 131.503852 61.671952 131.599728 46 131.461919 46 117.138672 96.830078 117.138672 96.830078 87.0361328 57.781655 87.0361328"></polygon>
            <path d="M353,91.6491998 L372.016607,63.4559207 C372.006295,63.505604 371.996048,63.5554526 371.985865,63.6054688 C371.828217,64.3797964 371.683339,65.1832871 371.55173,66.0073721 C370.990364,69.5224498 370.67044,73.4122201 370.630885,77.0117236 L370.630885,90.3418017 C370.679713,94.7851833 371.131369,99.0331877 371.985865,103.085942 C372.840361,107.138697 374.183122,110.715321 376.014185,113.815923 C377.845249,116.916524 380.201183,119.394527 383.082056,121.250005 C385.96293,123.105483 389.429692,124.057622 393.482447,124.10645 C395.142612,124.10645 396.851579,123.996588 398.6094,123.77686 C400.367221,123.557133 402.039568,123.203132 403.62649,122.714849 C405.213412,122.226565 406.666034,121.604013 407.9844,120.847173 C409.302766,120.090333 410.376974,119.150401 411.207056,118.027349 L411.353541,96.713872 L392.090846,96.713872 L392.090846,83.017583 L428.565455,83.017583 L428.711939,123.666997 C426.90529,125.815445 424.781287,127.792965 422.339869,129.599614 C419.89845,131.406264 417.164103,132.968748 414.136744,134.287114 C411.109385,135.60548 407.825726,136.630861 404.28567,137.363286 C400.745613,138.095712 396.973678,138.461919 392.969752,138.461919 C386.573235,138.461919 380.90923,137.216814 375.977564,134.726567 C371.045899,132.236321 366.883343,128.830593 363.489771,124.509282 C360.0962,120.187972 357.508335,115.09769 355.726099,109.238286 C354.05962,103.75945 353.150928,97.8964729 353,91.6491998 Z M395.257419,29 C399.36933,29.2584654 403.123352,29.9791666 406.519556,31.1621142 C410.865281,32.6757936 414.600596,34.8608304 417.725611,37.71729 C420.850627,40.5737496 423.328629,44.0527187 425.159693,48.1543017 C426.990757,52.2558847 428.150413,56.8456826 428.638697,61.923833 L411.353541,61.923833 C410.914085,59.0429592 410.230499,56.4550944 409.30276,54.1601611 C408.375021,51.8652277 407.129916,49.9121223 405.567408,48.3007861 C404.0049,46.6894499 402.112829,45.4565521 399.891138,44.6020556 C397.669448,43.7475592 395.044962,43.3203173 392.017603,43.3203173 C389.235868,43.3203173 386.749103,43.8347483 384.557271,44.8636218 L395.257419,29.0000001 L395.257419,29 Z M493.853503,91.8056319 L451.88535,91.8056319 L451.88535,124.134615 L501,124.134615 L501,138 L435,138 L435,35 L500.509554,35 L500.509554,49.0068681 L451.88535,49.0068681 L451.88535,78.0817308 L493.853503,78.0817308 L493.853503,85.3568132 L493.853503,91.8056319 Z" id="HYPE-GEAR-Copy-11" fill="#FFFFFF" fill-rule="nonzero"></path>
            <path d="M526.480347,123.941064 L504,138.539972 L538.610856,32 L554.064958,32 L587.976843,138.413158 L565.697608,123.944854 L562.780778,113.884766 L529.455583,113.884766 L526.480347,123.941064 Z M533.923356,98.8701172 L558.386247,98.8701172 L546.301286,57.0488281 L533.923356,98.8701172 Z M626.449219,97.0390625 L608.578125,97.0390625 L608.578125,114.457031 L591,138.640625 L591,32 L624.691406,32 C630.160184,32.0488284 635.201637,32.7446222 639.815918,34.0874023 C644.430199,35.4301825 648.421858,37.4321156 651.791016,40.0932617 C655.160173,42.7544078 657.772452,46.086894 659.62793,50.0908203 C661.483408,54.0947466 662.411133,58.7821997 662.411133,64.1533203 C662.411133,67.7666196 661.935063,71.0502782 660.98291,74.0043945 C660.030757,76.9585109 658.700204,79.631824 656.991211,82.0244141 C655.282218,84.4170042 653.231457,86.5165925 650.838867,88.3232422 C648.446277,90.1298918 645.809585,91.6679624 642.928711,92.9375 L651.791016,114.457031 L642.928711,130.461919 L626.449219,97.0390625 Z M609.578125,81.8300781 L625.764648,81.8300781 C628.694351,81.8300781 631.379871,81.4150432 633.821289,80.5849609 C636.262708,79.7548787 638.374503,78.5708085 640.156738,77.0327148 C641.938974,75.4946212 643.318354,73.6147572 644.294922,71.3930664 C645.271489,69.1713756 645.759766,66.6201316 645.759766,63.7392578 C645.759766,60.7607273 645.295903,58.1240349 644.368164,55.8291016 C643.440425,53.5341682 642.109872,51.6054766 640.376465,50.0429688 C638.643058,48.4804609 636.531262,47.2963907 634.041016,46.4907227 C631.550769,45.6850546 628.767594,45.2578127 625.691406,45.2089844 L609.578125,45.2089844 L609.578125,81.8300781 Z" id="HYPE-GEAR-Copy-8" fill="#FFFFFF" fill-rule="nonzero"></path>
            <path d="M137.578125,90.7714844 L137.578125,131.640625 L120,131.640625 L120,25 L155.668945,25 C160.991238,25.0488284 165.910622,25.8422775 170.427246,27.3803711 C174.94387,28.9184647 178.837874,31.1157084 182.109375,33.972168 C185.380876,36.8286276 187.93212,40.2953898 189.763184,44.3725586 C191.594247,48.4497274 192.509766,53.0517322 192.509766,58.1787109 C192.509766,63.1592046 191.594247,67.6513472 189.763184,71.6552734 C187.93212,75.6591997 185.380876,79.0771343 182.109375,81.9091797 C178.837874,84.7412251 174.94387,86.9140549 170.427246,88.4277344 C165.910622,89.9414138 160.991238,90.722656 155.668945,90.7714844 L137.578125,90.7714844 Z M137.578125,76.5625 L155.668945,76.5625 C158.647476,76.5625 161.308582,76.1108444 163.652344,75.2075195 C165.996105,74.3041947 167.998039,73.0468831 169.658203,71.4355469 C171.318368,69.8242107 172.587886,67.895519 173.466797,65.6494141 C174.345708,63.4033091 174.785156,60.9619272 174.785156,58.3251953 C174.785156,55.5419783 174.345708,52.9785273 173.466797,50.6347656 C172.587886,48.2910039 171.318368,46.2768639 169.658203,44.5922852 C167.998039,42.9077064 165.996105,41.6015671 163.652344,40.6738281 C161.308582,39.7460891 158.647476,39.2578127 155.668945,39.2089844 L137.578125,39.2089844 L137.578125,76.5625 Z" id="P" fill="#131415" fill-rule="nonzero" transform="translate(156.254883, 78.320312) scale(-1, 1) translate(-156.254883, -78.320312) "></path>
        </g>
    </g>
</svg>