<?xml version="1.0" encoding="UTF-8"?>
<svg width="809px" height="162px" viewBox="0 0 809 162" version="1.1" xmlns="http://www.w3.org/2000/svg" xmlns:xlink="http://www.w3.org/1999/xlink">
    <!-- Generator: Sketch 53.1 (72631) - https://sketchapp.com -->
    <title>Group</title>
    <desc>Created with Sketch.</desc>
    <g id="Page-1" stroke="none" stroke-width="1" fill="none" fill-rule="evenodd">
        <g id="Group" transform="translate(0.000000, -0.000000)">
            <polygon id="Rectangle" fill="#AC3B3B" points="150.429688 2.16004992e-12 459.146474 2.16004992e-12 353.597656 162 0 162"></polygon>
            <polygon id="Rectangle-Copy-4" fill="#193773" points="459.146474 2.16004992e-12 809 2.19826934e-12 681.964844 162 350.960938 162"></polygon>
            <path d="M390.807617,103.007078 L390.807617,81.8300781 L354.039062,81.8300781 L354.039062,130.461919 L337.487305,130.461919 L337.487305,102.773438 L337.487305,72.9648438 L337.487305,45.2617188 L337.487305,24 L354.039062,24 L354.039062,68.6044922 L390.807617,68.6044922 L390.807617,24 L407.946289,24 L407.946289,77.5979525 L390.807617,103.007078 Z" id="Combined-Shape-Copy-20" fill="#193773" fill-rule="nonzero"></path>
            <polygon id="Path-Copy-17" fill="#193773" fill-rule="nonzero" transform="translate(291.821289, 77.230959) scale(1, -1) rotate(-180.000000) translate(-291.821289, -77.230959) " points="291.821289 74.9765625 315.482422 24 333.642578 24 300.390625 92.3349609 300.390625 130.461919 283.032227 130.461919 283.032227 91.8955078 250 24 271.818359 24"></polygon>
            <path d="M120.365736,71.8271484 L149.830078,71.8271484 L149.830078,38.3554688 L142.942669,38.3554688 L152.625555,24 L167.481445,24 L171.487305,130.640625 L151.412431,130.503852 L114.671952,130.599728 L99,130.461919 L99,116.138672 L149.830078,116.138672 L149.830078,86.0361328 L110.781655,86.0361328 L120.365736,71.8271484 Z" id="Combined-Shape-Copy-19" fill="#193773" fill-rule="nonzero"></path>
            <path d="M407,91.6491998 L426.016607,63.4559207 C426.006295,63.505604 425.996048,63.5554526 425.985865,63.6054688 C425.828217,64.3797964 425.683339,65.1832871 425.55173,66.0073721 C424.990364,69.5224498 424.67044,73.4122201 424.630885,77.0117236 L424.630885,90.3418017 C424.679713,94.7851833 425.131369,99.0331877 425.985865,103.085942 C426.840361,107.138697 428.183122,110.715321 430.014185,113.815923 C431.845249,116.916524 434.201183,119.394527 437.082056,121.250005 C439.96293,123.105483 443.429692,124.057622 447.482447,124.10645 C449.142612,124.10645 450.851579,123.996588 452.6094,123.77686 C454.367221,123.557133 456.039568,123.203132 457.62649,122.714849 C459.213412,122.226565 460.666034,121.604013 461.9844,120.847173 C463.302766,120.090333 464.376974,119.150401 465.207056,118.027349 L465.353541,96.713872 L446.090846,96.713872 L446.090846,83.017583 L482.565455,83.017583 L482.711939,123.666997 C480.90529,125.815445 478.781287,127.792965 476.339869,129.599614 C473.89845,131.406264 471.164103,132.968748 468.136744,134.287114 C465.109385,135.60548 461.825726,136.630861 458.28567,137.363286 C454.745613,138.095712 450.973678,138.461919 446.969752,138.461919 C440.573235,138.461919 434.90923,137.216814 429.977564,134.726567 C425.045899,132.236321 420.883343,128.830593 417.489771,124.509282 C414.0962,120.187972 411.508335,115.09769 409.726099,109.238286 C408.05962,103.75945 407.150928,97.8964729 407,91.6491998 Z M449.257419,29 C453.36933,29.2584654 457.123352,29.9791666 460.519556,31.1621142 C464.865281,32.6757936 468.600596,34.8608304 471.725611,37.71729 C474.850627,40.5737496 477.328629,44.0527187 479.159693,48.1543017 C480.990757,52.2558847 482.150413,56.8456826 482.638697,61.923833 L465.353541,61.923833 C464.914085,59.0429592 464.230499,56.4550944 463.30276,54.1601611 C462.375021,51.8652277 461.129916,49.9121223 459.567408,48.3007861 C458.0049,46.6894499 456.112829,45.4565521 453.891138,44.6020556 C451.669448,43.7475592 449.044962,43.3203173 446.017603,43.3203173 C443.235868,43.3203173 440.749103,43.8347483 438.557271,44.8636218 L449.257419,29.0000001 Z M547.853503,91.8056319 L505.88535,91.8056319 L505.88535,124.134615 L555,124.134615 L555,138 L489,138 L489,35 L554.509554,35 L554.509554,49.0068681 L505.88535,49.0068681 L505.88535,78.0817308 L547.853503,78.0817308 L547.853503,85.3568132 L547.853503,91.8056319 Z" id="HYPE-GEAR-Copy-11" fill="#FAF4F3" fill-rule="nonzero"></path>
            <path d="M580.480347,123.941064 L558,138.539972 L592.610856,32 L608.064958,32 L641.976843,138.413158 L619.697608,123.944854 L616.780778,113.884766 L583.455583,113.884766 L580.480347,123.941064 Z M587.923356,98.8701172 L612.386247,98.8701172 L600.301286,57.0488281 L587.923356,98.8701172 Z M662.578125,126.619792 L645,138.03516 L645,32 L678.691406,32 C684.160184,32.0488284 689.201637,32.7446222 693.815918,34.0874023 C698.430199,35.4301825 702.421858,37.4321156 705.791016,40.0932617 C709.160173,42.7544078 711.772452,46.086894 713.62793,50.0908203 C715.483408,54.0947466 716.411133,58.7821997 716.411133,64.1533203 C716.411133,67.7666196 715.935063,71.0502782 714.98291,74.0043945 C714.030757,76.9585109 712.700204,79.631824 710.991211,82.0244141 C709.282218,84.4170042 707.231457,86.5165925 704.838867,88.3232422 C702.446277,90.1298918 699.809585,91.6679624 696.928711,92.9375 L701.243182,101.51041 L687.106791,110.69069 L680.449219,97.0390625 L662.578125,97.0390625 L662.578125,126.619792 Z M719.487305,138.549434 L719.487305,138.640625 L719.346883,138.640625 L719.487305,138.549434 Z M663.578125,81.8300781 L679.764648,81.8300781 C682.694351,81.8300781 685.379871,81.4150432 687.821289,80.5849609 C690.262708,79.7548787 692.374503,78.5708085 694.156738,77.0327148 C695.938974,75.4946212 697.318354,73.6147572 698.294922,71.3930664 C699.271489,69.1713756 699.759766,66.6201316 699.759766,63.7392578 C699.759766,60.7607273 699.295903,58.1240349 698.368164,55.8291016 C697.440425,53.5341682 696.109872,51.6054766 694.376465,50.0429688 C692.643058,48.4804609 690.531262,47.2963907 688.041016,46.4907227 C685.550769,45.6850546 682.767594,45.2578127 679.691406,45.2089844 L663.578125,45.2089844 L663.578125,81.8300781 Z" id="HYPE-GEAR-Copy-8" fill="#FEF8F7" fill-rule="nonzero"></path>
            <path d="M190.578125,89.7714844 L190.578125,130.640625 L173,130.640625 L173,24 L208.668945,24 C213.991238,24.0488284 218.910622,24.8422775 223.427246,26.3803711 C227.94387,27.9184647 231.837874,30.1157084 235.109375,32.972168 C238.380876,35.8286276 240.93212,39.2953898 242.763184,43.3725586 C244.594247,47.4497274 245.509766,52.0517322 245.509766,57.1787109 C245.509766,62.1592046 244.594247,66.6513472 242.763184,70.6552734 C240.93212,74.6591997 238.380876,78.0771343 235.109375,80.9091797 C231.837874,83.7412251 227.94387,85.9140549 223.427246,87.4277344 C218.910622,88.9414138 213.991238,89.722656 208.668945,89.7714844 L190.578125,89.7714844 Z M190.578125,75.5625 L208.668945,75.5625 C211.647476,75.5625 214.308582,75.1108444 216.652344,74.2075195 C218.996105,73.3041947 220.998039,72.0468831 222.658203,70.4355469 C224.318368,68.8242107 225.587886,66.895519 226.466797,64.6494141 C227.345708,62.4033091 227.785156,59.9619272 227.785156,57.3251953 C227.785156,54.5419783 227.345708,51.9785273 226.466797,49.6347656 C225.587886,47.2910039 224.318368,45.2768639 222.658203,43.5922852 C220.998039,41.9077064 218.996105,40.6015671 216.652344,39.6738281 C214.308582,38.7460891 211.647476,38.2578127 208.668945,38.2089844 L190.578125,38.2089844 L190.578125,75.5625 Z" id="P" fill="#193773" fill-rule="nonzero" transform="translate(209.254883, 77.320313) scale(-1, 1) translate(-209.254883, -77.320313) "></path>
        </g>
    </g>
</svg>