<?xml version="1.0" encoding="UTF-8"?>
<svg width="621px" height="115px" viewBox="0 0 621 115" version="1.1" xmlns="http://www.w3.org/2000/svg" xmlns:xlink="http://www.w3.org/1999/xlink">
    <!-- Generator: Sketch 53.1 (72631) - https://sketchapp.com -->
    <title>Group</title>
    <desc>Created with Sketch.</desc>
    <g id="Page-1" stroke="none" stroke-width="1" fill="none" fill-rule="evenodd">
        <g id="Group" transform="translate(0.000000, -0.000000)" fill-rule="nonzero">
            <path d="M291.807617,79.0070784 L291.807617,57.8300781 L255.039062,57.8300781 L255.039062,115 L238.487305,94.640625 L238.487305,78.7734375 L238.487305,48.9648438 L238.487305,21.2617188 L238.487305,2.06767936e-12 L255.039062,2.44654297e-12 L255.039062,44.6044922 L291.807617,44.6044922 L291.807617,2.44654297e-12 L308.946289,2.06767936e-12 L308.946289,53.5979525 L291.807617,79.0070784 Z" id="Combined-Shape-Copy-20" fill="#193773"></path>
            <polygon id="Path-Copy-17" fill="#193773" transform="translate(192.821289, 53.230959) scale(1, -1) rotate(-180.000000) translate(-192.821289, -53.230959) " points="192.821289 50.9765625 216.482422 7.10542736e-15 234.642578 2.74926361e-12 201.390625 68.3349609 201.390625 106.461919 184.032227 106.461919 184.032227 67.8955078 151 2.74926361e-12 172.818359 7.10542736e-15"></polygon>
            <path d="M21.3657356,47.8271484 L50.8300781,47.8271484 L50.8300781,14.3554688 L43.9426686,14.3554688 L53.6255546,7.81597009e-14 L68.4814453,8.52651283e-14 L72.4873047,106.640625 L52.4124314,106.503852 L15.6719518,106.599728 L2.77111667e-13,106.461919 L2.77111667e-13,92.1386719 L50.8300781,92.1386719 L50.8300781,62.0361328 L11.7816546,62.0361328 L21.3657356,47.8271484 Z" id="Combined-Shape-Copy-19" fill="#193773"></path>
            <path d="M308,67.6491998 L327.016607,39.4559207 C327.006295,39.505604 326.996048,39.5554526 326.985865,39.6054688 C326.828217,40.3797964 326.683339,41.1832871 326.55173,42.0073721 C325.990364,45.5224498 325.67044,49.4122201 325.630885,53.0117236 L325.630885,66.3418017 C325.679713,70.7851833 326.131369,75.0331877 326.985865,79.0859423 C327.840361,83.138697 329.183122,86.7153214 331.014185,89.8159228 C332.845249,92.9165242 335.201183,95.3945268 338.082056,97.2500048 C340.96293,99.1054829 344.429692,100.057622 348.482447,100.10645 C350.142612,100.10645 351.851579,99.996588 353.6094,99.7768603 C355.367221,99.5571326 357.039568,99.2031323 358.62649,98.7148486 C360.213412,98.2265649 361.666034,97.6040125 362.9844,96.8471728 C364.302766,96.0903331 365.376974,95.1504011 366.207056,94.0273486 L366.353541,72.713872 L347.090846,72.713872 L347.090846,59.017583 L383.565455,59.017583 L383.711939,99.666997 C381.90529,101.815445 379.781287,103.792965 377.339869,105.599614 C374.89845,107.406264 372.164103,108.968748 369.136744,110.287114 C366.109385,111.60548 362.825726,112.630861 359.28567,113.363286 C355.745613,114.095712 351.973678,114.461919 347.969752,114.461919 C341.573235,114.461919 335.90923,113.216814 330.977564,110.726567 C326.045899,108.236321 321.883343,104.830593 318.489771,100.509282 C315.0962,96.1879715 312.508335,91.0976904 310.726099,85.2382861 C309.05962,79.7594501 308.150928,73.8964729 308,67.6491998 Z M350.257419,5 C354.36933,5.25846543 358.123352,5.97916655 361.519556,7.16211421 C365.865281,8.67579365 369.600596,10.8608304 372.725611,13.71729 C375.850627,16.5737496 378.328629,20.0527187 380.159693,24.1543017 C381.990757,28.2558847 383.150413,32.8456826 383.638697,37.923833 L366.353541,37.923833 C365.914085,35.0429592 365.230499,32.4550944 364.30276,30.1601611 C363.375021,27.8652277 362.129916,25.9121223 360.567408,24.3007861 C359.0049,22.6894499 357.112829,21.4565521 354.891138,20.6020556 C352.669448,19.7475592 350.044962,19.3203173 347.017603,19.3203173 C344.235868,19.3203173 341.749103,19.8347483 339.557271,20.8636218 L350.257419,5.00000005 Z M448.853503,67.8056319 L406.88535,67.8056319 L406.88535,100.134615 L456,100.134615 L456,114 L390,114 L390,11 L455.509554,11 L455.509554,25.0068681 L406.88535,25.0068681 L406.88535,54.0817308 L448.853503,54.0817308 L448.853503,61.3568132 L448.853503,67.8056319 Z" id="HYPE-GEAR-Copy-11" fill="#181717"></path>
            <path d="M481.480347,99.9410641 L459,114.539972 L493.610856,8 L509.064958,8 L542.976843,114.413158 L520.697608,99.9448535 L517.780778,89.8847656 L484.455583,89.8847656 L481.480347,99.9410641 Z M488.923356,74.8701172 L513.386247,74.8701172 L501.301286,33.0488281 L488.923356,74.8701172 Z M563.578125,102.619792 L546,114.03516 L546,8 L579.691406,8 C585.160184,8.04882837 590.201637,8.74462219 594.815918,10.0874023 C599.430199,11.4301825 603.421858,13.4321156 606.791016,16.0932617 C610.160173,18.7544078 612.772452,22.086894 614.62793,26.0908203 C616.483408,30.0947466 617.411133,34.7821997 617.411133,40.1533203 C617.411133,43.7666196 616.935063,47.0502782 615.98291,50.0043945 C615.030757,52.9585109 613.700204,55.631824 611.991211,58.0244141 C610.282218,60.4170042 608.231457,62.5165925 605.838867,64.3232422 C603.446277,66.1298918 600.809585,67.6679624 597.928711,68.9375 L602.243182,77.5104105 L588.106791,86.6906904 L581.449219,73.0390625 L563.578125,73.0390625 L563.578125,102.619792 Z M620.487305,114.549434 L620.487305,114.640625 L620.346883,114.640625 L620.487305,114.549434 Z M564.578125,57.8300781 L580.764648,57.8300781 C583.694351,57.8300781 586.379871,57.4150432 588.821289,56.5849609 C591.262708,55.7548787 593.374503,54.5708085 595.156738,53.0327148 C596.938974,51.4946212 598.318354,49.6147572 599.294922,47.3930664 C600.271489,45.1713756 600.759766,42.6201316 600.759766,39.7392578 C600.759766,36.7607273 600.295903,34.1240349 599.368164,31.8291016 C598.440425,29.5341682 597.109872,27.6054766 595.376465,26.0429688 C593.643058,24.4804609 591.531262,23.2963907 589.041016,22.4907227 C586.550769,21.6850546 583.767594,21.2578127 580.691406,21.2089844 L564.578125,21.2089844 L564.578125,57.8300781 Z" id="HYPE-GEAR-Copy-8" fill="#181717"></path>
            <path d="M91.578125,65.7714844 L91.578125,106.640625 L74,106.640625 L74,2.04636308e-12 L109.668945,2.04636308e-12 C114.991238,0.0488283691 119.910622,0.842277466 124.427246,2.38037109 C128.94387,3.91846472 132.837874,6.11570837 136.109375,8.97216797 C139.380876,11.8286276 141.93212,15.2953898 143.763184,19.3725586 C145.594247,23.4497274 146.509766,28.0517322 146.509766,33.1787109 C146.509766,38.1592046 145.594247,42.6513472 143.763184,46.6552734 C141.93212,50.6591997 139.380876,54.0771343 136.109375,56.9091797 C132.837874,59.7412251 128.94387,61.9140549 124.427246,63.4277344 C119.910622,64.9414138 114.991238,65.722656 109.668945,65.7714844 L91.578125,65.7714844 Z M91.578125,51.5625 L109.668945,51.5625 C112.647476,51.5625 115.308582,51.1108444 117.652344,50.2075195 C119.996105,49.3041947 121.998039,48.0468831 123.658203,46.4355469 C125.318368,44.8242107 126.587886,42.895519 127.466797,40.6494141 C128.345708,38.4033091 128.785156,35.9619272 128.785156,33.3251953 C128.785156,30.5419783 128.345708,27.9785273 127.466797,25.6347656 C126.587886,23.2910039 125.318368,21.2768639 123.658203,19.5922852 C121.998039,17.9077064 119.996105,16.6015671 117.652344,15.6738281 C115.308582,14.7460891 112.647476,14.2578127 109.668945,14.2089844 L91.578125,14.2089844 L91.578125,51.5625 Z" id="P" fill="#193773" transform="translate(110.254883, 53.320313) scale(-1, 1) translate(-110.254883, -53.320313) "></path>
        </g>
    </g>
</svg>
